<svg viewBox="0 0 100 100" xmlns="http://www.w3.org/2000/svg" width="200" height="200">
  <path d="M50,60 Q40,70 35,85" stroke="#4caf50" stroke-width="4" fill="none" stroke-linecap="round"/>
  <ellipse cx="38" cy="73" rx="12" ry="6" fill="#66bb6a" transform="rotate(-40,38,73)"/>
  <ellipse cx="50" cy="30" rx="9" ry="16" fill="#ff6b6b"/>
  <ellipse cx="50" cy="30" rx="9" ry="16" fill="#ff8a8a" transform="rotate(45,50,50)"/>
  <ellipse cx="50" cy="30" rx="9" ry="16" fill="#ff6b6b" transform="rotate(90,50,50)"/>
  <ellipse cx="50" cy="30" rx="9" ry="16" fill="#ff8a8a" transform="rotate(135,50,50)"/>
  <circle cx="50" cy="50" r="13" fill="#ffd166"/>
  <circle cx="45" cy="47" r="2.5" fill="#e8a000"/>
  <circle cx="55" cy="47" r="2.5" fill="#e8a000"/>
  <circle cx="45.5" cy="46.5" r="1.2" fill="#222"/>
  <circle cx="55.5" cy="46.5" r="1.2" fill="#222"/>
  <path d="M44,53 Q50,58 56,53" stroke="#e8a000" stroke-width="1.8" fill="none" stroke-linecap="round"/>
</svg>
