<svg viewBox="0 0 100 100" xmlns="http://www.w3.org/2000/svg" width="200" height="200">
  <ellipse cx="50" cy="62" rx="28" ry="22" fill="#f4a261"/>
  <circle cx="50" cy="40" r="22" fill="#f4a261"/>
  <polygon points="30,22 22,5 40,18" fill="#f4a261"/>
  <polygon points="70,22 78,5 60,18" fill="#f4a261"/>
  <polygon points="32,20 26,8 40,18" fill="#e76f51"/>
  <polygon points="68,20 74,8 60,18" fill="#e76f51"/>
  <circle cx="42" cy="39" r="5" fill="white"/><circle cx="58" cy="39" r="5" fill="white"/>
  <circle cx="43" cy="39" r="3" fill="#222"/><circle cx="59" cy="39" r="3" fill="#222"/>
  <circle cx="43.5" cy="38" r="1" fill="white"/><circle cx="59.5" cy="38" r="1" fill="white"/>
  <ellipse cx="50" cy="48" rx="4" ry="3" fill="#e76f51"/>
  <path d="M46,51 Q50,55 54,51" stroke="#555" stroke-width="1.5" fill="none"/>
  <line x1="30" y1="46" x2="44" y2="48" stroke="#aaa" stroke-width="1.2"/>
  <line x1="30" y1="49" x2="44" y2="49" stroke="#aaa" stroke-width="1.2"/>
  <line x1="56" y1="48" x2="70" y2="46" stroke="#aaa" stroke-width="1.2"/>
  <line x1="56" y1="49" x2="70" y2="49" stroke="#aaa" stroke-width="1.2"/>
  <path d="M78,70 Q90,60 85,50" stroke="#f4a261" stroke-width="6" fill="none" stroke-linecap="round"/>
</svg>
