<svg viewBox="0 0 100 100" xmlns="http://www.w3.org/2000/svg" width="200" height="200">
  <polygon points="50,92 20,52 80,52" fill="#f5a623"/>
  <line x1="50" y1="92" x2="30" y2="52" stroke="#e8961a" stroke-width="1.5"/>
  <line x1="50" y1="92" x2="50" y2="52" stroke="#e8961a" stroke-width="1.5"/>
  <line x1="50" y1="92" x2="70" y2="52" stroke="#e8961a" stroke-width="1.5"/>
  <line x1="35" y1="65" x2="65" y2="65" stroke="#e8961a" stroke-width="1.5"/>
  <line x1="27" y1="55" x2="73" y2="55" stroke="#e8961a" stroke-width="1.5"/>
  <circle cx="50" cy="42" r="22" fill="#ff9fb2"/>
  <circle cx="50" cy="24" r="16" fill="#fffde7"/>
  <circle cx="42" cy="40" r="3" fill="#ff6b9d" opacity="0.7"/>
  <circle cx="58" cy="38" r="3" fill="#ff6b9d" opacity="0.7"/>
  <circle cx="50" cy="48" r="3" fill="#ff6b9d" opacity="0.7"/>
  <circle cx="45" cy="21" r="2.5" fill="#ccc"/>
  <circle cx="55" cy="21" r="2.5" fill="#ccc"/>
  <circle cx="45.5" cy="20.5" r="1.5" fill="#222"/>
  <circle cx="55.5" cy="20.5" r="1.5" fill="#222"/>
  <path d="M44,26 Q50,31 56,26" stroke="#ccc" stroke-width="1.5" fill="none" stroke-linecap="round"/>
  <circle cx="40" cy="16" r="2" fill="#ff6b6b"/>
  <circle cx="56" cy="12" r="1.5" fill="#ffd166"/>
  <circle cx="62" cy="20" r="2" fill="#6fa8fa"/>
</svg>
