<svg viewBox="0 0 100 100" xmlns="http://www.w3.org/2000/svg" width="200" height="200">
  <rect x="12" y="58" width="76" height="30" rx="5" fill="#f48fb1"/>
  <rect x="12" y="53" width="76" height="8" rx="0" fill="#fff9c4"/>
  <rect x="12" y="35" width="76" height="20" rx="5" fill="#f06292"/>
  <path d="M12,35 Q30,28 50,35 Q70,42 88,35" fill="none" stroke="white" stroke-width="3" opacity="0.5"/>
  <rect x="30" y="20" width="6" height="16" rx="3" fill="#ffd166"/>
  <rect x="47" y="18" width="6" height="17" rx="3" fill="#6fa8fa"/>
  <rect x="64" y="20" width="6" height="16" rx="3" fill="#ff9fb2"/>
  <ellipse cx="33" cy="17" rx="4" ry="6" fill="#ff9800"/>
  <ellipse cx="33" cy="16" rx="2" ry="4" fill="#ffd166"/>
  <ellipse cx="50" cy="15" rx="4" ry="6" fill="#ff9800"/>
  <ellipse cx="50" cy="14" rx="2" ry="4" fill="#ffd166"/>
  <ellipse cx="67" cy="17" rx="4" ry="6" fill="#ff9800"/>
  <ellipse cx="67" cy="16" rx="2" ry="4" fill="#ffd166"/>
  <circle cx="25" cy="65" r="4" fill="#ffd166"/>
  <circle cx="50" cy="65" r="4" fill="#ffd166"/>
  <circle cx="75" cy="65" r="4" fill="#ffd166"/>
</svg>
